<svg id="main_svg" xmlns="http://www.w3.org/2000/svg" width="100%" height="100%"><g id="svg_g_bezier_cells"><path d="M83.07188056496149,124.5928337626024 C158.14376112992298,129.24391063796583 158.14376112992298,129.24391063796583 190.92089714373958,68.62195531898291 C223.69803315755615,8 223.69803315755615,8 115.84901657877808,8 C8,8 8,8 8,63.970878443619476 C8,119.94175688723895 8,119.94175688723895 83.07188056496149,124.5928337626024 Z" fill="#221155" fill-opacity="0.2"/><path d="M405.701212487357,73.01033573075762 C459.4656275943459,138.02067146151524 459.4656275943459,138.02067146151524 491.6963613858104,101.21533973696879 C523.9270951772749,64.41000801242232 523.9270951772749,64.41000801242232 531.828747002184,36.20500400621116 C539.7303988270932,8 539.7303988270932,8 445.83359810373065,8 C351.93679738036815,8 351.93679738036815,8 405.701212487357,73.01033573075762 Z" fill="#221155" fill-opacity="0.2"/><path d="M796.1002148035299,76.19851383551574 C807.2155325850589,144.39702767103148 807.2155325850589,144.39702767103148 855.7195546132231,153.06669151829965 C904.2235766413872,161.73635536556782 904.2235766413872,161.73635536556782 908.1117883206937,161.17733859871748 C912,160.61832183186715 912,160.61832183186715 912,84.30916091593357 C911.9999999999999,8 911.9999999999999,8 848.4924485110004,8 C784.9848970220008,8 784.9848970220008,8 796.1002148035299,76.19851383551574 Z" fill="#221155" fill-opacity="0.2"/><path d="M666.2306734936731,67.73563712677726 C672.4040771046664,127.47127425355453 672.4040771046664,127.47127425355453 711.0919590701931,151.5277280817354 C749.7798410357199,175.5841819099163 749.7798410357199,175.5841819099163 770.6450976022061,161.54271612953355 C791.5103541686923,147.50125034915078 791.5103541686923,147.50125034915078 780.1420659073729,77.75062517457539 C768.7737776460534,8 768.7737776460534,8 714.4155237643665,8 C660.0572698826796,8 660.0572698826796,8 666.2306734936731,67.73563712677726 Z" fill="#221155" fill-opacity="0.2"/><path d="M196.76602581902313,160.89958842211456 C220.94214473933522,185.63287217405087 220.94214473933522,185.63287217405087 269.6288782528922,115.73763417009755 C318.3156117664492,45.84239616614421 318.3156117664492,45.84239616614421 320.8258745886062,26.921198083072106 C323.3361374107633,8 323.3361374107633,8 282.6115614377255,8 C241.8869854646877,8 241.8869854646877,8 207.23844618169937,72.08315233508911 C172.589906898711,136.16630467017822 172.589906898711,136.16630467017822 196.76602581902313,160.89958842211456 Z" fill="#221155" fill-opacity="0.2"/><path d="M554.0618869852985,126.56604708374988 C568.7053868797427,184.70737277289504 568.7053868797427,184.70737277289504 590.5476579442238,182.99955153673767 C612.3899290087048,181.29173030058027 612.3899290087048,181.29173030058027 634.4646880844282,155.44872588089095 C656.5394471601514,129.6057214612016 656.5394471601514,129.6057214612016 650.2557508936097,68.8028607306008 C643.9720546270681,8 643.9720546270681,8 600.1592350809085,8 C556.346415534749,8 556.346415534749,8 547.8824013128017,38.212360697302366 C539.4183870908545,68.42472139460473 539.4183870908545,68.42472139460473 554.0618869852985,126.56604708374988 Z" fill="#221155" fill-opacity="0.2"/><path d="M350.415866486103,114.54566222714128 C366.7119037887703,180.71648479757621 366.7119037887703,180.71648479757621 408.3110788530668,177.1934443531837 C449.9102539173633,173.6704039087912 449.9102539173633,173.6704039087912 450.5155257036364,163.3532232882598 C451.1207974899094,153.03604266772845 451.1207974899094,153.03604266772845 394.72469940987077,84.84355395949613 C338.3286013298321,16.651065251263816 338.3286013298321,16.651065251263816 336.22421525663395,32.51295245398508 C334.1198291834358,48.374839656706335 334.1198291834358,48.374839656706335 350.415866486103,114.54566222714128 Z" fill="#221155" fill-opacity="0.2"/><path d="M470.0957959304751,183.56462761910177 C474.5272181660191,188.7987636977341 474.5272181660191,188.7987636977341 513.972072948751,189.15759074263138 C553.4169277314829,189.51641778752864 553.4169277314829,189.51641778752864 540.2630423804258,137.2895363871567 C527.1091570293685,85.06265498678474 527.1091570293685,85.06265498678474 497.11307960741544,119.31615933121691 C467.11700218546235,153.56966367564908 467.11700218546235,153.56966367564908 466.3906879401967,165.95007760805925 C465.66437369493104,178.33049154046944 465.66437369493104,178.33049154046944 470.0957959304751,183.56462761910177 Z" fill="#221155" fill-opacity="0.2"/><path d="M269.96778057508845,210.77166618729666 C303.56647283975985,230.06450566617957 303.56647283975985,230.06450566617957 314.8558167695446,230.46095971353105 C326.1451606993293,230.85741376088257 326.1451606993293,230.85741376088257 339.0820860574438,209.41132419717013 C352.0190114155582,187.9652346334577 352.0190114155582,187.9652346334577 337.23461439061055,127.93249819706298 C322.4502173656629,67.89976176066826 322.4502173656629,67.89976176066826 279.40965283803996,129.68929423454102 C236.369088310417,191.47882670841378 236.369088310417,191.47882670841378 269.96778057508845,210.77166618729666 Z" fill="#221155" fill-opacity="0.2"/><path d="M80.11443666633636,263.9909776473236 C152.22887333267272,271.6645306790106 152.22887333267272,271.6645306790106 180.06135642156124,233.41901202053114 C207.89383951044974,195.17349336205166 207.89383951044974,195.17349336205166 183.53785517971602,170.2561990066028 C159.1818708489823,145.33890465115397 159.1818708489823,145.33890465115397 83.59093542449115,140.65566974223606 C8,135.97243483331815 8,135.97243483331815 8,196.14492972447732 C8,256.31742461563647 8,256.31742461563647 80.11443666633636,263.9909776473236 Z" fill="#221155" fill-opacity="0.2"/><path d="M645.7314478332995,236.08350361619432 C665.8004029810511,281.77898639294654 665.8004029810511,281.77898639294654 703.6235816891271,251.79327077274283 C741.4467603972033,221.80755515253912 741.4467603972033,221.80755515253912 741.6685129052655,205.66344001887524 C741.8902654133277,189.51932488521138 741.8902654133277,189.51932488521138 704.1779441503875,166.06948299353485 C666.4656228874474,142.61964110185832 666.4656228874474,142.61964110185832 646.0640577864976,166.5038309706502 C625.6624926855479,190.3880208394421 625.6624926855479,190.3880208394421 645.7314478332995,236.08350361619432 Z" fill="#221155" fill-opacity="0.2"/><path d="M780.2093500523059,243.49405709395418 C802.9769265660293,264.7076224494054 802.9769265660293,264.7076224494054 845.5173085950662,219.90402337396125 C888.057690624103,175.10042429851714 888.057690624103,175.10042429851714 845.0343682630057,167.41038691879663 C802.0110459019085,159.72034953907612 802.0110459019085,159.72034953907612 779.9521624816019,174.56507745855885 C757.8932790612954,189.40980537804154 757.8932790612954,189.40980537804154 757.667526299939,205.84514855827226 C757.4417735385825,222.28049173850297 757.4417735385825,222.28049173850297 780.2093500523059,243.49405709395418 Z" fill="#221155" fill-opacity="0.2"/><path d="M394.56742732578385,263.97319973257663 C446.4265760982051,293.5703111264242 446.4265760982051,293.5703111264242 454.3560615686646,246.33584071854654 C462.28554703912414,199.10137031066887 462.28554703912414,199.10137031066887 458.1689821896489,194.2391253126986 C454.05241734017363,189.3768803147283 454.05241734017363,189.3768803147283 409.6862204270494,193.13426025909575 C365.32002351392515,196.89164020346323 365.32002351392515,196.89164020346323 354.0141510336439,215.63386427109617 C342.7082785533626,234.37608833872912 342.7082785533626,234.37608833872912 394.56742732578385,263.97319973257663 Z" fill="#221155" fill-opacity="0.2"/><path d="M502.60453795487547,289.6947261604881 C542.5996866474828,285.57445650892527 542.5996866474828,285.57445650892527 545.1587487057192,245.51984592653258 C547.7178107639555,205.4652353441399 547.7178107639555,205.4652353441399 512.6330364621033,205.14607164197986 C477.54826216025117,204.82690793981985 477.54826216025117,204.82690793981985 470.0788257112596,249.32095187593535 C462.60938926226805,293.8149958120509 462.60938926226805,293.8149958120509 502.60453795487547,289.6947261604881 Z" fill="#221155" fill-opacity="0.2"/><path d="M580.1272517538441,305.52144993446177 C601.8448593785886,321.98329105102357 601.8448593785886,321.98329105102357 621.1038294025127,316.47114771102247 C640.3627994264368,310.9590043710214 640.3627994264368,310.9590043710214 646.6091025982346,301.52634347407866 C652.8554057700322,292.09368257713584 652.8554057700322,292.09368257713584 632.0672142567446,244.76055336030709 C611.2790227434571,197.4274241434783 611.2790227434571,197.4274241434783 588.3112033218521,199.22325066905566 C563.9748955142624,201.95192172278894 563.9748955142624,201.95192172278894 561.1922698216811,245.50576527034448 C558.4096441290997,289.0596088179 558.4096441290997,289.0596088179 580.1272517538441,305.52144993446177 Z" fill="#221155" fill-opacity="0.2"/><path d="M847.8097916795172,305.692046818982 C880.971135756732,335.7318145644006 880.971135756732,335.7318145644006 896.485567878366,339.489818144113 C912.0000000000001,343.2478217238254 912.0000000000001,343.2478217238254 912.0000000000001,260.01533065791824 C907.9739890422117,177.36166806498358 907.9739890422117,177.36166806498358 861.311218322257,226.5069735692735 C814.6484476023023,275.6522790735634 814.6484476023023,275.6522790735634 847.8097916795172,305.692046818982 Z" fill="#221155" fill-opacity="0.2"/><path d="M171.5425737005693,288.2902881878172 C177.26528329317748,296.40015082063036 177.26528329317748,296.40015082063036 211.73524956026648,300.7231407828906 C246.20521582735546,305.04613074515083 246.20521582735546,305.04613074515083 268.02587865333726,272.8413146928135 C289.8465414793191,240.63649864047616 289.8465414793191,240.63649864047616 256.36391905650413,221.41030808976097 C222.56808843749178,202.2008480412355 222.56808843749178,202.2008480412355 194.19397627272645,241.19063679811978 C165.81986410796114,280.1804255550041 165.81986410796114,280.1804255550041 171.5425737005693,288.2902881878172 Z" fill="#221155" fill-opacity="0.2"/><path d="M718.7309029250332,303.58819981232244 C755.0167960130279,318.17493798388716 755.0167960130279,318.17493798388716 773.6680286212554,297.4105860033569 C792.3192612294828,276.64623402282666 792.3192612294828,276.64623402282666 770.6462349883577,256.4525099196316 C748.9732087472327,236.25878581643656 748.9732087472327,236.25878581643656 715.7091092921356,262.63012372859714 C682.4450098370386,289.0014616407577 682.4450098370386,289.0014616407577 718.7309029250332,303.58819981232244 Z" fill="#221155" fill-opacity="0.2"/><path d="M338.2759298763782,296.2220161570626 C340.001893205029,343.16021827852836 340.001893205029,343.16021827852836 353.57491173186787,347.59490752063056 C367.14793025870677,352.02959676273275 367.14793025870677,352.02959676273275 402.7178651222794,338.4397969556835 C438.2877999858521,324.8499971486343 438.2877999858521,324.8499971486343 439.9584504894201,317.0523461649406 C441.62910099298807,309.2546951812469 441.62910099298807,309.2546951812469 389.0895337703578,279.2692546084219 C336.5499665477275,249.28381403559686 336.5499665477275,249.28381403559686 338.2759298763782,296.2220161570626 Z" fill="#221155" fill-opacity="0.2"/><path d="M270.81793581456384,333.86863097931666 C282.14517351161413,353.7748004139118 282.14517351161413,353.7748004139118 289.82227345100944,355.4029998302433 C297.4993733904048,357.03119924657483 297.4993733904048,357.03119924657483 310.762847605278,350.57491551528824 C324.0263218201513,344.1186317840016 324.0263218201513,344.1186317840016 322.2346267166805,295.39283007621225 C320.44293161320974,246.66702836842296 320.44293161320974,246.66702836842296 312.94356932143523,246.40366917309495 C305.44420702966073,246.14030997776698 305.44420702966073,246.14030997776698 282.46745257358714,280.05138576124426 C259.49069811751355,313.9624615447215 259.49069811751355,313.9624615447215 270.81793581456384,333.86863097931666 Z" fill="#221155" fill-opacity="0.2"/><path d="M768.2874172473444,356.01480511767653 C771.0154530569042,381.6481402304846 771.0154530569042,381.6481402304846 816.8325812231942,361.1859437182864 C862.6497093894843,340.7237472060882 862.6497093894843,340.7237472060882 833.3225650903671,314.15725456542395 C803.9954207912499,287.59076192475976 803.9954207912499,287.59076192475976 784.7774011145173,308.9861159648141 C765.5593814377845,330.38147000486845 765.5593814377845,330.38147000486845 768.2874172473444,356.01480511767653 Z" fill="#221155" fill-opacity="0.2"/><path d="M485.43682368084797,398.9156561864462 C517.2924662308063,467.98844516411856 517.2924662308063,467.98844516411856 553.6017768008181,400.501504594749 C589.9110873708299,333.0145640253795 589.9110873708299,333.0145640253795 568.8722910994352,317.06725861827726 C547.8334948280404,301.119953211175 547.8334948280404,301.119953211175 502.7900926811061,305.7602900754172 C457.7466905341717,310.4006269396594 457.7466905341717,310.4006269396594 455.6639358325307,320.1217470742166 C453.5811811308896,329.84286720877384 453.5811811308896,329.84286720877384 485.43682368084797,398.9156561864462 Z" fill="#221155" fill-opacity="0.2"/><path d="M690.8573160481446,376.4321826284321 C726.8212519524485,434.8690052347063 726.8212519524485,434.8690052347063 741.3921087205151,413.1346121843213 C755.9629654885817,391.4002191339363 755.9629654885817,391.4002191339363 752.872078394073,362.3574388259394 C749.7811912995643,333.31465851794263 749.7811912995643,333.31465851794263 708.3058383293505,316.6417847682842 C666.8304853591368,299.96891101862576 666.8304853591368,299.96891101862576 660.8619327514889,308.9821355203918 C654.8933801438409,317.99536002215785 654.8933801438409,317.99536002215785 690.8573160481446,376.4321826284321 Z" fill="#221155" fill-opacity="0.2"/><path d="M182.7465646911491,365.50980854170314 C184.4316549855016,418.01803673962644 184.4316549855016,418.01803673962644 225.4515832764423,388.299938798937 C266.471511567383,358.5818408582475 266.471511567383,358.5818408582475 255.78842508592288,339.807684680722 C245.1053386044628,321.0335285031964 245.1053386044628,321.0335285031964 213.08340650062968,317.01755442348815 C181.06147439679657,313.00158034377984 181.06147439679657,313.00158034377984 182.7465646911491,365.50980854170314 Z" fill="#221155" fill-opacity="0.2"/><path d="M160.90127674243067,451.9654515693477 C168.86990868176025,431.9309031386954 168.86990868176025,431.9309031386954 166.85807838900686,369.2412986341622 C164.84624809625348,306.551694129629 164.84624809625348,306.551694129629 158.18802602008833,297.1160822848118 C151.5298039439232,287.6804704399945 151.5298039439232,287.6804704399945 79.7649019719616,280.0441106963326 C8,272.40775095267065 8,272.40775095267065 8,372.2038754763353 C8,472 8,472 80.46632240155054,472 C152.93264480310108,472 152.93264480310108,472 160.90127674243067,451.9654515693477 Z" fill="#221155" fill-opacity="0.2"/><path d="M379.3719007138076,418.9370985054733 C383.0019311382606,472.0000000000001 383.0019311382606,472.0000000000001 442.26244492563023,472 C501.52295871299987,471.99999999999994 501.52295871299987,471.99999999999994 471.2956071617891,406.45784457882684 C441.0682556105784,340.91568915765373 441.0682556105784,340.91568915765373 408.40506294996646,353.3949430843001 C375.7418702893545,365.8741970109465 375.7418702893545,365.8741970109465 379.3719007138076,418.9370985054733 Z" fill="#221155" fill-opacity="0.2"/><path d="M717.8662756190063,461.8651170637331 C718.4109240331483,451.7302341274662 718.4109240331483,451.7302341274662 680.0905164865496,389.46444475559895 C641.7701089399509,327.19865538373176 641.7701089399509,327.19865538373176 623.7081947031063,332.3681873028644 C605.6462804662618,337.53771922199695 605.6462804662618,337.53771922199695 569.474595459277,404.7688596109985 C533.3029104522923,472.00000000000006 533.3029104522923,472.00000000000006 625.3122688285783,472.0000000000001 C717.3216272048644,472.0000000000001 717.3216272048644,472.0000000000001 717.8662756190063,461.8651170637331 Z" fill="#221155" fill-opacity="0.2"/><path d="M314.77855114040955,421.02903048035796 C322.2625104765934,471.9999999999999 322.2625104765934,471.9999999999999 344.6135229730947,471.9999999999999 C366.964535469596,471.9999999999999 366.964535469596,471.9999999999999 363.3539498482294,419.22133790572815 C359.7433642268628,366.4426758114564 359.7433642268628,366.4426758114564 346.2736698744395,362.041745501004 C332.8039755220162,357.6408151905517 332.8039755220162,357.6408151905517 320.04928366312095,363.8494380756338 C307.2945918042257,370.058060960716 307.2945918042257,370.058060960716 314.77855114040955,421.02903048035796 Z" fill="#221155" fill-opacity="0.2"/><path d="M894.9394238697125,355.5779997530801 C877.8788477394254,351.44547942188655 877.8788477394254,351.44547942188655 823.7338938004382,375.6269314679935 C769.588939861451,399.80838351410034 769.588939861451,399.80838351410034 751.9963890905202,426.0500396706725 C734.4038383195895,452.2916958272447 734.4038383195895,452.2916958272447 733.8742763759233,462.14584791362233 C733.3447144322571,471.9999999999999 733.3447144322571,471.9999999999999 822.6723572161286,471.9999999999999 C912,471.99999999999994 912,471.99999999999994 911.9999999999999,415.8552600421368 C911.9999999999998,359.71052008427364 911.9999999999998,359.71052008427364 894.9394238697125,355.5779997530801 Z" fill="#221155" fill-opacity="0.2"/><path d="M298.756784631354,422.04914502058546 C291.4226065492695,372.0982900411709 291.4226065492695,372.0982900411709 285.10414183537466,370.7582370731898 C278.78567712147975,369.41818410520864 278.78567712147975,369.41818410520864 231.1399237989146,403.93655658151147 C183.4941704763494,438.4549290578143 183.4941704763494,438.4549290578143 176.82298633056644,455.2274645289072 C170.15180218478346,472.0000000000001 170.15180218478346,472.0000000000001 238.12138244911097,472.0000000000001 C306.09096271343844,472.00000000000006 306.09096271343844,472.00000000000006 298.756784631354,422.04914502058546 Z" fill="#221155" fill-opacity="0.2"/></g></svg>