<svg id="main_svg" xmlns="http://www.w3.org/2000/svg" width="100%" height="100%"><g id="svg_g_bezier_cells"><path d="M463.7761587607289,26.39495530789111 C469.7229685409575,44.58991061578222 469.7229685409575,44.58991061578222 540.0011616294441,79.8630595984137 C610.2793547179307,115.13620858104518 610.2793547179307,115.13620858104518 632.2552089724317,104.73738984368417 C654.2310632269326,94.33857110632316 654.2310632269326,94.33857110632316 669.3712406190696,51.26928555316158 C684.5114180112064,8.199999999999998 684.5114180112064,8.199999999999998 571.1703834958533,8.199999999999998 C457.82934898050036,8.199999999999998 457.82934898050036,8.199999999999998 463.7761587607289,26.39495530789111 Z" fill="#221155" fill-opacity="0.2"/><path d="M141.10602744109914,51.40330089789617 C165.12836989423127,94.60660179579234 165.12836989423127,94.60660179579234 207.59922577546294,130.99142555203886 C250.0700816566946,167.37624930828537 250.0700816566946,167.37624930828537 273.9165707581329,156.3161010536669 C297.7630598595712,145.2559527990484 297.7630598595712,145.2559527990484 329.4812530482161,76.7279763995242 C361.1994462368611,8.200000000000001 361.1994462368611,8.200000000000001 239.14156561241407,8.2 C117.08368498796702,8.199999999999998 117.08368498796702,8.199999999999998 141.10602744109914,51.40330089789617 Z" fill="#221155" fill-opacity="0.2"/><path d="M695.1833196460027,148.39949230640894 C720.6185012183901,197.15014406952645 720.6185012183901,197.15014406952645 733.707493390142,196.1362957521534 C746.7964855618939,195.12244743478033 746.7964855618939,195.12244743478033 823.4560420459798,101.66122371739016 C900.1155985300657,8.199999999999996 900.1155985300657,8.199999999999996 801.0054071398793,8.199999999999996 C701.8952157496929,8.199999999999996 701.8952157496929,8.199999999999996 685.8216769116541,53.9244202716457 C669.7481380736152,99.64884054329141 669.7481380736152,99.64884054329141 695.1833196460027,148.39949230640894 Z" fill="#221155" fill-opacity="0.2"/><path d="M472.00371977051907,104.00363234019403 C472.61319842779255,144.2287613078835 472.61319842779255,144.2287613078835 523.1842679367735,163.34301807136336 C573.7553374457544,182.4572748348432 573.7553374457544,182.4572748348432 586.5541146761643,155.22958943841843 C599.3528919065743,128.0019040419937 599.3528919065743,128.0019040419937 535.37356650991,95.89020370724913 C471.39424111324564,63.77850337250455 471.39424111324564,63.77850337250455 472.00371977051907,104.00363234019403 Z" fill="#221155" fill-opacity="0.2"/><path d="M367.380065247982,180.1677460722517 C420.2919415122881,212.12744230832624 422.7650106349793,211.0208030406439 439.5163072184889,179.4822572455969 C456.2676038019985,147.94371145054993 456.2676038019985,147.94371145054993 455.5388716195688,99.8479403003726 C454.810139437139,51.752169150195265 454.810139437139,51.752169150195265 447.6928791562021,29.97608457509763 C440.57561887526515,8.2 440.57561887526515,8.2 409.92328659090373,8.2 C379.2709543065423,8.2 379.2709543065423,8.2 346.8695716451091,78.20402491808858 C314.4681889836759,148.20804983617717 314.4681889836759,148.20804983617717 367.380065247982,180.1677460722517 Z" fill="#221155" fill-opacity="0.2"/><path d="M596.9130179750309,220.61813781131667 C606.9968878616872,248.04066493516515 606.9968878616872,248.04066493516515 642.9197292159528,240.4637251759696 C678.8425705702183,232.88678541677405 678.8425705702183,232.88678541677405 692.3599721071369,218.6187510180171 C705.8773736440554,204.35071661926014 705.8773736440554,204.35071661926014 681.5438055126698,157.71148572754487 C657.2102373812842,111.07225483582958 657.2102373812842,111.07225483582958 636.7761649534889,120.74151332207148 C616.3420925256936,130.4107718083134 616.3420925256936,130.4107718083134 601.5856203070341,161.8031912478908 C586.8291480883746,193.1956106874682 586.8291480883746,193.1956106874682 596.9130179750309,220.61813781131667 Z" fill="#221155" fill-opacity="0.2"/><path d="M52.005238166504114,269.34558660071843 C95.81047633300822,277.55906875693796 95.81047633300822,277.55906875693796 122.8130620124443,189.18697016969247 C149.81564769188037,100.81487158244697 149.81564769188037,100.81487158244697 124.06731231972438,54.507435791223486 C98.3189769475684,8.200000000000001 98.3189769475684,8.200000000000001 53.2594884737842,8.2 C8.2,8.2 8.2,8.2 8.2,134.66605222224945 C8.200000000000001,261.1321044444989 8.200000000000001,261.1321044444989 52.005238166504114,269.34558660071843 Z" fill="#221155" fill-opacity="0.2"/><path d="M828.4146273459556,268.4229868515595 C894.8425462770389,334.38307483594485 894.8425462770389,334.38307483594485 903.3212731385195,338.7675504811019 C911.8000000000001,343.15202612625893 911.8000000000001,343.15202612625893 911.8,181.4833393028726 C911.8,19.814652479486284 911.8,19.814652479486284 836.8933542074362,111.13877567333019 C761.9867084148724,202.4628988671741 761.9867084148724,202.4628988671741 828.4146273459556,268.4229868515595 Z" fill="#221155" fill-opacity="0.2"/><path d="M171.84173306766164,287.14522411653377 C231.9452196765743,292.7362461266652 231.9452196765743,292.7362461266652 236.09980309605015,236.6493699637412 C240.25438651552597,180.56249380081718 240.25438651552597,180.56249380081718 201.5557400125207,147.40932550690096 C162.85709350951538,114.25615721298473 162.85709350951538,114.25615721298473 137.29766998413217,197.90517965969354 C111.73824645874897,281.55420210640233 111.73824645874897,281.55420210640233 171.84173306766164,287.14522411653377 Z" fill="#221155" fill-opacity="0.2"/><path d="M482.2060159632334,249.3396876201522 C525.282494775995,283.5066910088693 525.282494775995,283.5066910088693 547.3500026396459,286.63362899870356 C569.4175105032969,289.76056698853773 569.4175105032969,289.76056698853773 580.9995478472463,273.05912738106133 C592.5815851911956,256.357687773585 592.5815851911956,256.357687773585 582.0642194226962,227.75629254537432 C571.5468536541969,199.15489731716366 571.5468536541969,199.15489731716366 519.9502000007271,179.6530023474792 C468.35354634725746,160.15110737779474 468.35354634725746,160.15110737779474 453.7415417488646,187.66189580461491 C439.1295371504718,215.17268423143508 439.1295371504718,215.17268423143508 482.2060159632334,249.3396876201522 Z" fill="#221155" fill-opacity="0.2"/><path d="M253.23659171565112,304.68449426914174 C258.53172904265523,310.57533454543386 258.53172904265523,310.57533454543386 308.54203816977406,301.64492220130546 C358.55234729689283,292.714509857177 358.55234729689283,292.714509857177 383.2242675354678,258.25710215012776 C407.8961877740428,223.7996944430785 407.8961877740428,223.7996944430785 355.66561988882614,192.25152035242976 C303.4350520036095,160.70334626178104 303.4350520036095,160.70334626178104 279.997487826108,171.57383262258733 C256.55992364860657,182.44431898339363 256.55992364860657,182.44431898339363 252.25068901862676,240.6189864881216 C247.94145438864697,298.7936539928496 247.94145438864697,298.7936539928496 253.23659171565112,304.68449426914174 Z" fill="#221155" fill-opacity="0.2"/><path d="M708.4592000860889,280.4517625818937 C724.2738016233156,318.73944041530024 724.2738016233156,318.73944041530024 796.2176304053781,324.87045526555346 C868.1614591874406,331.0014701158067 868.1614591874406,331.0014701158067 807.9836082447885,271.24743285616233 C747.8057573021362,211.493395596518 747.8057573021362,211.493395596518 733.7200896223527,212.5844444938537 C719.6344219425692,213.67549339118938 719.6344219425692,213.67549339118938 706.1395102457158,227.9197890698383 C692.6445985488623,242.1640847484872 692.6445985488623,242.1640847484872 708.4592000860889,280.4517625818937 Z" fill="#221155" fill-opacity="0.2"/><path d="M402.4154748703195,333.8337166265332 C431.1708797089975,367.88214063472515 431.1708797089975,367.88214063472515 470.3416555895586,329.90647159819594 C509.5124314701198,291.9308025616667 509.5124314701198,291.9308025616667 468.5014304158447,259.4020757340465 C425.1000194449821,227.94300015688313 425.1000194449821,227.94300015688313 399.38004473831177,263.8641463876122 C373.6600700316414,299.78529261834126 373.6600700316414,299.78529261834126 402.4154748703195,333.8337166265332 Z" fill="#221155" fill-opacity="0.2"/><path d="M585.3800625550311,312.06184907938285 C588.5805524268222,323.9871046873745 588.5805524268222,323.9871046873745 624.6235365185096,357.1494746115834 C660.6665206101969,390.3118445357924 660.6665206101969,390.3118445357924 684.9550823760162,357.81069493178677 C709.2436441418356,325.30954532778117 709.2436441418356,325.30954532778117 693.6517801745931,287.56112258093947 C678.0599162073507,249.8126998340977 678.0599162073507,249.8126998340977 642.3449147388344,257.3458014603809 C606.629913270318,264.8789030866641 606.629913270318,264.8789030866641 594.404742976779,282.5077482790276 C582.1795726832399,300.1365934713912 582.1795726832399,300.1365934713912 585.3800625550311,312.06184907938285 Z" fill="#221155" fill-opacity="0.2"/><path d="M447.4524965515608,427.26407013491644 C455.4864452175058,471.79999999999967 455.4864452175058,471.79999999999967 463.7085425050884,471.79999999999967 C471.9306397926711,471.79999999999967 471.9306397926711,471.79999999999967 522.1515215602896,399.3322010372097 C572.372403327908,326.86440207441973 572.372403327908,326.86440207441973 569.5655939528287,316.4060283311537 C566.7587845777493,305.9476545878877 566.7587845777493,305.9476545878877 545.756688020643,302.97168403442265 C524.7545914635366,299.99571348095753 524.7545914635366,299.99571348095753 482.0865696745762,341.3619268753954 C439.4185478856158,382.7281402698332 439.4185478856158,382.7281402698332 447.4524965515608,427.26407013491644 Z" fill="#221155" fill-opacity="0.2"/><path d="M678.8805309632003,438.055625914925 C687.0828939876193,471.79999999999995 687.0828939876193,471.79999999999995 799.4414469938098,471.8 C911.8000000000003,471.80000000000007 911.8000000000003,471.80000000000007 911.8000000000004,416.70750800976117 C911.8000000000005,361.6150160195223 911.8000000000005,361.6150160195223 899.7192400798931,355.36787555727483 C887.6384801597856,349.12073509502744 887.6384801597856,349.12073509502744 805.0409275676006,342.08181556419044 C722.4433749754156,335.04289603335343 722.4433749754156,335.04289603335343 696.5607714570986,369.67707393160174 C670.6781679387814,404.31125182985 670.6781679387814,404.31125182985 678.8805309632003,438.055625914925 Z" fill="#221155" fill-opacity="0.2"/><path d="M94.70893359135016,383.099934891156 C96.63719587632502,294.399869782312 96.63719587632502,294.399869782312 52.41859793816251,286.1088826689065 C8.200000000000006,277.8178955555011 8.200000000000006,277.8178955555011 8.200000000000005,374.8089477777505 C8.200000000000003,471.8 8.200000000000003,471.8 50.49033565318765,471.8 C92.7806713063753,471.8 92.7806713063753,471.8 94.70893359135016,383.099934891156 Z" fill="#221155" fill-opacity="0.2"/><path d="M244.28898010289356,397.12888329213854 C247.16094613011902,322.457766584277 247.16094613011902,322.457766584277 241.35635093942923,316.0001544346346 C235.55175574873945,309.54254228499224 235.55175574873945,309.54254228499224 174.25577440835812,303.84059053239855 C112.95979306797678,298.1386387798049 112.95979306797678,298.1386387798049 111.07216957645291,384.9693193899026 C109.18454608492904,471.8000000000002 109.18454608492904,471.8000000000002 175.30078008029858,471.8000000000002 C241.41701407566813,471.8000000000001 241.41701407566813,471.8000000000001 244.28898010289356,397.12888329213854 Z" fill="#221155" fill-opacity="0.2"/><path d="M430.85719603677023,427.64880475879556 C422.8926506195644,383.49760951759123 422.8926506195644,383.49760951759123 391.47830188458795,346.300808718912 C360.06395314961145,309.10400792023273 360.06395314961145,309.10400792023273 311.74344390910653,317.7326702846086 C263.42293466860156,326.3613326489845 263.42293466860156,326.3613326489845 260.6260372195436,399.0806663244922 C257.82913977048565,471.79999999999995 257.82913977048565,471.79999999999995 348.32544061223086,471.79999999999995 C438.821741453976,471.79999999999995 438.821741453976,471.79999999999995 430.85719603677023,427.64880475879556 Z" fill="#221155" fill-opacity="0.2"/><path d="M662.3112322084048,439.3237335379169 C654.4171125389104,406.847467075834 654.4171125389104,406.847467075834 618.535684996732,373.8337418377828 C582.6542574545537,340.8200165997315 582.6542574545537,340.8200165997315 537.2690632412791,406.3100082998657 C491.88386902800465,471.79999999999984 491.88386902800465,471.79999999999984 581.0446104529519,471.79999999999984 C670.2053518778993,471.7999999999998 670.2053518778993,471.7999999999998 662.3112322084048,439.3237335379169 Z" fill="#221155" fill-opacity="0.2"/></g></svg>