<svg id="main_svg" xmlns="http://www.w3.org/2000/svg" width="100%" height="100%"><g id="svg_g_bezier_cells"><path d="M461.13622714900725,26.043113221481857 C467.7524535508151,46.28622644296372 467.7524535508151,46.28622644296372 539.0004189942566,82.04611139947676 C610.2483844376982,117.80599635598979 610.2483844376982,117.80599635598979 633.205713079212,106.94275088337137 C656.163041720726,96.07950541075296 656.163041720726,96.07950541075296 672.0310519423726,50.93975270537648 C687.8990621640191,5.799999999999997 687.8990621640191,5.799999999999997 571.2095314556093,5.799999999999998 C454.52000074719933,5.799999999999999 454.52000074719933,5.799999999999999 461.13622714900725,26.043113221481857 Z" fill="#221155" fill-opacity="0.2"/><path d="M138.12158587955574,50.9745711231366 C163.24001422043756,96.1491422462732 163.24001422043756,96.1491422462732 206.46015264691533,133.1758770915887 C249.6802910733931,170.2026119369042 249.6802910733931,170.2026119369042 274.62582449360747,158.6327201702596 C299.5713579138218,147.06282840361501 299.5713579138218,147.06282840361501 332.2631278820313,76.43141420180751 C364.95489785024074,5.800000000000001 364.95489785024074,5.800000000000001 238.97902769445733,5.8 C113.0031575386739,5.799999999999999 113.0031575386739,5.799999999999999 138.12158587955574,50.9745711231366 Z" fill="#221155" fill-opacity="0.2"/><path d="M693.1811547351056,149.75045771119215 C719.2237757847587,199.66536577572725 719.2237757847587,199.66536577572725 733.6132563234048,198.5507841150044 C748.0027368620508,197.43620245428156 748.0027368620508,197.43620245428156 826.5954713786771,101.61810122714078 C905.1882058953034,5.799999999999998 905.1882058953034,5.799999999999998 802.6915624981505,5.799999999999998 C700.1949191009974,5.799999999999998 700.1949191009974,5.799999999999998 683.666726393225,52.81777482332853 C667.1385336854524,99.83554964665706 667.1385336854524,99.83554964665706 693.1811547351056,149.75045771119215 Z" fill="#221155" fill-opacity="0.2"/><path d="M469.58638484577375,102.87772144280005 C470.23819651643083,145.89679717568634 470.23819651643083,145.89679717568634 522.610640319007,165.69191616156382 C574.9830841215831,185.4870351474413 574.9830841215831,185.4870351474413 588.7514974317219,156.19657878058763 C602.5199107418606,126.90612241373393 602.5199107418606,126.90612241373393 535.7272419584885,93.38238406182384 C468.9345731751166,59.85864570991376 468.9345731751166,59.85864570991376 469.58638484577375,102.87772144280005 Z" fill="#221155" fill-opacity="0.2"/><path d="M365.7565819854341,181.9909636602108 C420.1259830180456,214.8310302807886 424.49784690229353,212.87472578332034 441.5872626343861,180.69958531044637 C458.6766783664786,148.52444483757236 458.6766783664786,148.52444483757236 457.94051664144274,99.9383295121944 C457.2043549164068,51.352214186816425 457.2043549164068,51.352214186816425 449.7602488921468,28.576107093408215 C442.3161428678868,5.800000000000004 442.3161428678868,5.800000000000004 410.0266634568778,5.800000000000004 C377.73718404586884,5.800000000000003 377.73718404586884,5.800000000000003 344.5621824993457,77.47544851981652 C311.3871809528225,149.15089703963304 311.3871809528225,149.15089703963304 365.7565819854341,181.9909636602108 Z" fill="#221155" fill-opacity="0.2"/><path d="M594.8456339704614,221.94994884481727 C605.460854340413,250.81745425618982 605.460854340413,250.81745425618982 642.7654994742945,242.94906082566774 C680.0701446081762,235.08066739514567 680.0701446081762,235.08066739514567 694.4336345909103,219.91956053595214 C708.7971245736443,204.75845367675865 708.7971245736443,204.75845367675865 683.5336935188461,156.3369896432155 C658.2702624640481,107.91552560967236 658.2702624640481,107.91552560967236 636.4034624316673,118.26274066076756 C614.5366623992865,128.60995571186277 614.5366623992865,128.60995571186277 599.3835379998982,160.84619957265375 C584.2304136005098,193.08244343344472 584.2304136005098,193.08244343344472 594.8456339704614,221.94994884481727 Z" fill="#221155" fill-opacity="0.2"/><path d="M51.63917302489604,271.71877247608177 C97.47834604979208,280.31361741824975 97.47834604979208,280.31361741824975 124.94370520989324,190.42698743973696 C152.40906436999438,100.54035746122416 152.40906436999438,100.54035746122416 126.06981176931515,53.17017873061208 C99.7305591686359,5.800000000000001 99.7305591686359,5.800000000000001 52.76527958431795,5.800000000000001 C5.799999999999999,5.8 5.799999999999999,5.8 5.8,134.4619637669569 C5.800000000000001,263.1239275339138 5.800000000000001,263.1239275339138 51.63917302489604,271.71877247608177 Z" fill="#221155" fill-opacity="0.2"/><path d="M826.0799762173253,269.48695977025454 C893.4129116034197,336.34569046331467 893.4129116034197,336.34569046331467 903.80645580171,341.72034660553516 C914.2,347.09500274775564 914.2,347.09500274775564 914.2,180.09962888337745 C914.2000000000002,13.104255018999277 914.2000000000002,13.104255018999277 836.4735204156154,107.86624204809684 C758.7470408312308,202.6282290771944 758.7470408312308,202.6282290771944 826.0799762173253,269.48695977025454 Z" fill="#221155" fill-opacity="0.2"/><path d="M171.36996329711656,289.51170018048526 C234.15800230039315,295.35244799474356 234.15800230039315,295.35244799474356 238.44774230769937,237.44095789610952 C242.7374823150056,179.52946779747546 242.7374823150056,179.52946779747546 202.18549198532207,144.78853803527164 C161.63350165563858,110.04760827306785 161.63350165563858,110.04760827306785 135.1077129747393,196.85928031964744 C108.58192429383998,283.670952366227 108.58192429383998,283.670952366227 171.36996329711656,289.51170018048526 Z" fill="#221155" fill-opacity="0.2"/><path d="M480.18695728815885,250.80151682583798 C524.3011586752638,285.79161141632784 524.3011586752638,285.79161141632784 547.4237045032669,289.0680469530456 C570.5462503312699,292.34448248976344 570.5462503312699,292.34448248976344 582.9054574889605,274.522354498759 C595.264664646651,256.7002265077546 595.264664646651,256.7002265077546 584.3428252383226,226.99888755915043 C573.4209858299943,197.29754861054627 573.4209858299943,197.29754861054627 520.3231288520476,177.22824650320678 C467.2252718741009,157.1589443958673 467.2252718741009,157.1589443958673 451.64901388757744,186.4851833156077 C436.07275590105394,215.81142223534812 436.07275590105394,215.81142223534812 480.18695728815885,250.80151682583798 Z" fill="#221155" fill-opacity="0.2"/><path d="M251.55587285760453,306.4048059584485 C257.6393334965206,313.1726559192426 257.6393334965206,313.1726559192426 308.78733800056693,304.0390836863771 C359.93534250461335,294.9055114535117 359.93534250461335,294.9055114535117 385.64679863439085,258.99626247578306 C411.3582547641683,223.08701349805443 411.3582547641683,223.08701349805443 357.4707547801793,190.53802351692312 C303.5832547961902,157.9890335357918 303.5832547961902,157.9890335357918 278.9269609563215,169.4247742068131 C254.2706671164529,180.86051487783442 254.2706671164529,180.86051487783442 249.8715396675707,240.2487354377444 C245.47241221868848,299.63695599765435 245.47241221868848,299.63695599765435 251.55587285760453,306.4048059584485 Z" fill="#221155" fill-opacity="0.2"/><path d="M706.2230760617313,281.32465868507495 C722.6135974816116,321.0066577647678 722.6135974816116,321.0066577647678 798.5772603279047,327.4802407374101 C874.5409231741979,333.95382371005235 874.5409231741979,333.95382371005235 811.6287675847955,271.4847386515621 C748.716611995393,209.01565359307182 748.716611995393,209.01565359307182 733.6221658535051,210.18484054206084 C718.5277197116171,211.35402749104986 718.5277197116171,211.35402749104986 704.180137176734,226.49834354821598 C689.8325546418508,241.64265960538214 689.8325546418508,241.64265960538214 706.2230760617313,281.32465868507495 Z" fill="#221155" fill-opacity="0.2"/><path d="M400.8085812672474,335.65067194601795 C430.99586980286404,371.3945470708711 430.99586980286404,371.3945470708711 472.07129672844934,331.5723382073935 C513.1467236540346,291.75012934391594 513.1467236540346,291.75012934391594 470.4934699497604,257.9188157356643 C423.52681862898305,226.01764436878892 423.52681862898305,226.01764436878892 397.0740556803069,262.9622205949769 C370.6212927316308,299.9067968211648 370.6212927316308,299.9067968211648 400.8085812672474,335.65067194601795 Z" fill="#221155" fill-opacity="0.2"/><path d="M583.0080788512246,312.48269549173426 C586.4430829024388,325.28176781071375 586.4430829024388,325.28176781071375 623.7203990026151,359.57981991292075 C660.9977151027913,393.87787201512776 660.9977151027913,393.87787201512776 686.4901127926539,359.76583857850824 C711.9825104825167,325.65380514188877 711.9825104825167,325.65380514188877 695.7495351487225,286.3532303917172 C679.5165598149283,247.05265564154567 679.5165598149283,247.05265564154567 642.358923380722,254.89004161220305 C605.2012869465158,262.7274275828604 605.2012869465158,262.7274275828604 592.3871808732631,281.2055253778076 C579.5730748000104,299.6836231727547 579.5730748000104,299.6836231727547 583.0080788512246,312.48269549173426 Z" fill="#221155" fill-opacity="0.2"/><path d="M445.1551182249735,428.0476880405341 C453.48065013191405,474.1999999999988 453.48065013191405,474.1999999999988 463.33402580225726,474.19999999999885 C473.18740147260047,474.1999999999989 473.18740147260047,474.1999999999989 524.0830918964401,400.75846468857884 C574.9787823202797,327.3169293771588 574.9787823202797,327.3169293771588 571.8222352057645,315.5554076454257 C568.6656880912493,303.7938859136927 568.6656880912493,303.7938859136927 546.2967258703143,300.6242322222116 C523.9277636493792,297.45457853073054 523.9277636493792,297.45457853073054 480.3786749837061,339.6749773059 C436.8295863180329,381.8953760810694 436.8295863180329,381.8953760810694 445.1551182249735,428.0476880405341 Z" fill="#221155" fill-opacity="0.2"/><path d="M676.6377551794599,438.9899459042432 C685.196386170057,474.19999999999976 685.196386170057,474.19999999999976 799.6981930850284,474.1999999999998 C914.1999999999998,474.1999999999999 914.1999999999998,474.1999999999999 914.1999999999998,417.17709536052007 C914.1999999999997,360.15419072104027 914.1999999999997,360.15419072104027 901.2586763212223,353.4620399521 C888.3173526424449,346.76988918315965 888.3173526424449,346.76988918315965 804.8181290524058,339.6541297291287 C721.3189054623666,332.5383702750978 721.3189054623666,332.5383702750978 694.6990148256147,368.1591310417922 C668.0791241888627,403.77989180848664 668.0791241888627,403.77989180848664 676.6377551794599,438.9899459042432 Z" fill="#221155" fill-opacity="0.2"/><path d="M97.10497488554385,383.30811923338604 C99.08088533699198,292.41623846677214 99.08088533699198,292.41623846677214 52.44044266849599,283.6711554664292 C5.799999999999997,274.9260724660862 5.799999999999997,274.9260724660862 5.799999999999998,374.56303623304314 C5.799999999999999,474.2 5.799999999999999,474.2 50.46453221704786,474.2 C95.12906443409572,474.2 95.12906443409572,474.2 97.10497488554385,383.30811923338604 Z" fill="#221155" fill-opacity="0.2"/><path d="M246.66153274122524,397.8886514855534 C249.5965846071655,321.5773029711066 249.5965846071655,321.5773029711066 243.152775723204,314.4085655876994 C236.70896683924252,307.2398282042923 236.70896683924252,307.2398282042923 173.66266550941214,301.37505598756377 C110.61636417958172,295.5102837708353 110.61636417958172,295.5102837708353 108.67408465535166,384.85514188541777 C106.7318051311216,474.20000000000016 106.7318051311216,474.20000000000016 175.2291430032033,474.20000000000016 C243.72648087528498,474.2000000000002 243.72648087528498,474.2000000000002 246.66153274122524,397.8886514855534 Z" fill="#221155" fill-opacity="0.2"/><path d="M433.4169788364637,428.31981740864427 C425.1405370322898,382.43963481728866 425.1405370322898,382.43963481728866 393.07253208221806,344.4688590357491 C361.00452713214634,306.49808325420963 361.00452713214634,306.49808325420963 311.0517469381436,315.4182225745673 C261.09896674414085,324.338361894925 261.09896674414085,324.338361894925 258.2170121651971,399.2691809474625 C255.33505758625338,474.19999999999993 255.33505758625338,474.19999999999993 348.5142391134455,474.19999999999993 C441.6934206406376,474.1999999999999 441.6934206406376,474.1999999999999 433.4169788364637,428.31981740864427 Z" fill="#221155" fill-opacity="0.2"/><path d="M664.9180072797262,439.88690007660284 C656.5774020767585,405.5738001532057 656.5774020767585,405.5738001532057 619.4143576823326,371.38088697535403 C582.2513132879066,337.18797379750237 582.2513132879066,337.18797379750237 534.7759872317738,405.6939868987511 C487.30066117564104,474.1999999999999 487.30066117564104,474.1999999999999 580.2796368291675,474.19999999999993 C673.258612482694,474.19999999999993 673.258612482694,474.19999999999993 664.9180072797262,439.88690007660284 Z" fill="#221155" fill-opacity="0.2"/></g></svg>